HIERARCHY
ROOT Hips
{
	OFFSET 0.00 0.00 0.00
	CHANNELS 6 Xposition Yposition Zposition Xrotation Yrotation Zrotation
	JOINT Spine
	{
		OFFSET 0.00000 1.61617 2.42426
		CHANNELS 3 Xrotation Yrotation Zrotation
		JOINT Spine1
		{
			OFFSET 0.00000 0.56129 3.18324
			CHANNELS 3 Xrotation Yrotation Zrotation
			JOINT Spine2
			{
				OFFSET 0.00000 0.28172 3.22005
				CHANNELS 3 Xrotation Yrotation Zrotation
				JOINT Spine3
				{
					OFFSET 0.00000 0.00000 3.23235
					CHANNELS 3 Xrotation Yrotation Zrotation
					JOINT Neck
					{
						OFFSET 0.00000 -1.21212 8.48491
						CHANNELS 3 Xrotation Yrotation Zrotation
						JOINT Head
						{
							OFFSET 0.00000 -0.77177 4.37696
							CHANNELS 3 Xrotation Yrotation Zrotation
							End Site
							{
								OFFSET 0.00000 0.00001 5.23236
							}
						}
					}
					JOINT RightShoulder
					{
						OFFSET -1.05492 -1.75819 5.69655
						CHANNELS 3 Xrotation Yrotation Zrotation
						JOINT RightArm
						{
							OFFSET -5.23942 0.00000 0.00000
							CHANNELS 3 Xrotation Yrotation Zrotation
							JOINT RightForeArm
							{
								OFFSET -10.59715 0.00000 0.00000
								CHANNELS 3 Xrotation Yrotation Zrotation
								JOINT RightHand
								{
									OFFSET -8.61218 0.00000 0.00000
									CHANNELS 3 Xrotation Yrotation Zrotation
									JOINT RightHandEnd
									{
										OFFSET -2.51134 0.00000 0.00000
										CHANNELS 3 Xrotation Yrotation Zrotation
										End Site
										{
											OFFSET -2.51134 0.00000 0.00000
										}
									}
									JOINT RightHandThumb1
									{
										OFFSET -1.00454 -1.67423 -0.66969
										CHANNELS 3 Yrotation Xrotation Zrotation
										End Site
										{
											OFFSET -2.42577 -0.64998 0.00000
										}
									}
								}
							}
						}
					}
					JOINT LeftShoulder
					{
						OFFSET 1.05492 -1.75819 5.69655
						CHANNELS 3 Xrotation Yrotation Zrotation
						JOINT LeftArm
						{
							OFFSET 5.23942 0.00000 0.00000
							CHANNELS 3 Xrotation Yrotation Zrotation
							JOINT LeftForeArm
							{
								OFFSET 10.59715 0.00000 0.00000
								CHANNELS 3 Xrotation Yrotation Zrotation
								JOINT LeftHand
								{
									OFFSET 8.61218 0.00000 0.00000
									CHANNELS 3 Xrotation Yrotation Zrotation
									JOINT LeftHandEnd
									{
										OFFSET 2.51134 0.00000 0.00000
										CHANNELS 3 Xrotation Yrotation Zrotation
										End Site
										{
											OFFSET 2.51134 0.00000 0.00000
										}
									}
									JOINT LeftHandThumb1
									{
										OFFSET 1.00454 -1.67423 -0.66969
										CHANNELS 3 Yrotation Xrotation Zrotation
										End Site
										{
											OFFSET 2.42577 -0.64998 0.00000
										}
									}
								}
							}
						}
					}
				}
			}
		}
	}
	JOINT RightUpLeg
	{
		OFFSET -3.12959 0.00000 -0.91426
		CHANNELS 3 Xrotation Yrotation Zrotation
		JOINT RightLeg
		{
			OFFSET 0.00001 0.00000 -15.50916
			CHANNELS 3 Xrotation Yrotation Zrotation
			JOINT RightFoot
			{
				OFFSET 0.00000 0.00000 -13.57731
				CHANNELS 3 Xrotation Yrotation Zrotation
				JOINT RightToeBase
				{
					OFFSET 0.00000 -5.09667 -1.85504
					CHANNELS 3 Xrotation Yrotation Zrotation
					End Site
					{
						OFFSET 0.00000 -2.53180 -0.00000
					}
				}
			}
		}
	}
	JOINT LeftUpLeg
	{
		OFFSET 3.12959 0.00000 -0.91426
		CHANNELS 3 Xrotation Yrotation Zrotation
		JOINT LeftLeg
		{
			OFFSET 0.00001 0.00000 -15.50916
			CHANNELS 3 Xrotation Yrotation Zrotation
			JOINT LeftFoot
			{
				OFFSET 0.00000 0.00000 -13.57731
				CHANNELS 3 Xrotation Yrotation Zrotation
				JOINT LeftToeBase
				{
					OFFSET 0.00000 -5.09667 -1.85504
					CHANNELS 3 Xrotation Yrotation Zrotation
					End Site
					{
						OFFSET 0.00000 -2.53180 -0.00000
					}
				}
			}
		}
	}
}
MOTION
Frames: 12
Frame Time: 0.008342
 16.1122 -39.4248 33.0005 -6.5234 -0.5680 -96.8186 0.7093 6.1262 0.5940 0.7988 1.4644 0.5416 -1.9173 8.6436 4.4411 -0.6188 2.3913 -1.4380 -1.8958 0.1030 2.7464 -5.4320 -2.4561 5.1689 -21.0947 24.5888 33.5053 -19.7336 -10.4812 14.8518 -0.0001 0.0001 102.8785 -33.2247 -13.3512 2.2558 0.0000 -0.0000 -0.0000 0.0000 0.0000 -0.0000 -0.4923 -6.7997 -6.8580 -35.6131 26.7263 -1.3408 -0.0001 -0.0000 -132.9443 -51.8905 -14.1747 7.2071 -0.0000 0.0000 0.0000 -0.0000 -0.0000 0.0000 -2.6884 3.1737 -15.9244 17.6196 0.0000 0.0000 -13.6027 -2.0032 3.4761 -1.6517 0.0000 -0.0000 -1.1076 -5.4749 21.7573 21.5244 0.0000 0.0000 0.4133 6.9803 7.9951 -23.3653 0.0000 -0.0000
 16.0870 -39.4443 32.9964 -6.3937 -0.4915 -97.0914 0.6702 6.1273 0.6066 0.7702 1.4606 0.5456 -1.8786 8.4839 4.4694 -0.6062 2.3248 -1.3324 -1.9159 -0.0203 2.6129 -5.4239 -2.4191 5.2394 -21.0752 24.5551 33.4150 -19.8116 -10.2827 14.9275 -0.0001 0.0001 102.8686 -33.1817 -13.4035 2.2122 0.0000 -0.0000 -0.0000 -0.0000 0.0000 0.0000 -0.3577 -7.0937 -6.8014 -35.6915 26.6152 -1.3260 -0.0001 -0.0000 -132.9073 -52.2249 -14.0825 7.0147 0.0000 0.0000 -0.0000 0.0000 0.0000 -0.0000 -2.6237 3.1687 -16.0956 17.7262 0.0000 0.0000 -13.5812 -2.1741 3.8865 -1.6662 0.0000 -0.0000 -1.1405 -5.7088 21.3122 21.8291 0.0000 0.0000 0.1709 7.0873 8.1340 -23.8716 0.0000 -0.0000
 16.0586 -39.4683 32.9943 -6.2831 -0.4039 -97.3671 0.6319 6.1292 0.6215 0.7409 1.4473 0.5490 -1.8454 8.3303 4.5288 -0.5921 2.2551 -1.2312 -1.9209 -0.1316 2.5138 -5.4057 -2.3565 5.2783 -21.0562 24.5375 33.3243 -19.8758 -10.0768 15.0066 -0.0001 0.0001 102.8581 -33.1256 -13.4454 2.1733 0.0000 -0.0000 -0.0000 0.0000 -0.0000 -0.0000 -0.2303 -7.3648 -6.7404 -35.7405 26.5219 -1.3334 -0.0001 -0.0000 -132.8766 -52.5326 -14.0172 6.8433 0.0000 -0.0000 -0.0000 -0.0000 -0.0000 -0.0000 -2.5455 3.1932 -16.2553 17.8308 0.0000 0.0000 -13.5463 -2.3483 4.2821 -1.6977 0.0000 -0.0000 -1.1466 -5.9254 20.9697 22.0619 0.0000 0.0000 -0.0283 7.2196 8.3622 -24.3716 0.0000 -0.0000
 16.0270 -39.4969 32.9945 -6.1959 -0.3043 -97.6472 0.5968 6.1332 0.6415 0.7116 1.4251 0.5517 -1.8207 8.1858 4.6180 -0.5757 2.1885 -1.1339 -1.9119 -0.2418 2.4501 -5.3767 -2.2610 5.2838 -21.0267 24.5273 33.2250 -19.9279 -9.8549 15.0936 -0.0001 0.0001 102.8479 -33.0578 -13.4696 2.1378 -0.0000 0.0000 0.0000 0.0000 -0.0000 0.0000 -0.1134 -7.6099 -6.6796 -35.7588 26.4399 -1.3649 -0.0001 -0.0000 -132.8503 -52.8044 -13.9700 6.6930 0.0000 0.0000 -0.0000 -0.0000 0.0000 0.0000 -2.4550 3.2501 -16.3922 17.9329 0.0000 0.0000 -13.4993 -2.5228 4.6528 -1.7444 0.0000 -0.0000 -1.1218 -6.1204 20.7359 22.2128 0.0000 0.0000 -0.1825 7.3711 8.6747 -24.8430 0.0000 -0.0000
 15.9914 -39.5299 32.9973 -6.1308 -0.1740 -97.9305 0.5834 6.1381 0.6656 0.6842 1.3974 0.5567 -1.8063 8.0497 4.7356 -0.5557 2.1262 -1.0446 -1.8913 -0.3512 2.4182 -5.3341 -2.1334 5.2625 -20.9916 24.5266 33.1167 -19.9634 -9.6281 15.1909 -0.0001 0.0001 102.8352 -32.9849 -13.4807 2.1087 -0.0000 0.0000 0.0000 -0.0000 -0.0000 -0.0000 -0.0087 -7.8358 -6.6179 -35.7486 26.3795 -1.4135 -0.0001 -0.0000 -132.8305 -53.0353 -13.9445 6.5675 0.0000 -0.0000 0.0000 -0.0000 -0.0000 0.0000 -2.3281 3.3383 -16.5002 18.0249 0.0000 0.0000 -13.4401 -2.6970 4.9899 -1.8050 0.0000 -0.0000 -1.0389 -6.2927 20.6164 22.2703 0.0000 0.0000 -0.2913 7.5349 9.0526 -25.2643 0.0000 -0.0000
 15.9542 -39.5676 33.0022 -6.0926 -0.0513 -98.2150 0.5540 6.1457 0.6919 0.6586 1.3558 0.5614 -1.7958 7.9349 4.8816 -0.5359 2.0601 -0.9621 -1.8640 -0.4491 2.4178 -5.2816 -1.9799 5.2157 -20.9488 24.5425 32.9991 -19.9865 -9.4019 15.2985 -0.0001 0.0001 102.8213 -32.9108 -13.4840 2.0843 0.0000 0.0000 -0.0000 -0.0000 -0.0000 0.0000 0.0735 -8.0296 -6.5619 -35.7058 26.3316 -1.4742 -0.0001 -0.0000 -132.8187 -53.2173 -13.9371 6.4734 -0.0000 0.0000 0.0000 0.0000 -0.0000 -0.0000 -2.2170 3.4577 -16.5719 18.1210 0.0000 0.0000 -13.3732 -2.8672 5.2846 -1.8761 0.0000 -0.0000 -0.9492 -6.4439 20.5977 22.2502 0.0000 0.0000 -0.3637 7.7033 9.4853 -25.6152 0.0000 -0.0000
 15.9153 -39.6093 33.0092 -6.0722 0.0711 -98.4938 0.5214 6.1441 0.7198 0.6349 1.3096 0.5634 -1.7930 7.8331 5.0438 -0.5180 1.9997 -0.8849 -1.8248 -0.5455 2.4407 -5.2200 -1.7962 5.1585 -20.9058 24.5466 32.8777 -19.9789 -9.1637 15.4259 -0.0001 0.0001 102.8007 -32.8418 -13.4773 2.0664 0.0000 0.0000 0.0000 -0.0000 0.0000 0.0000 0.1425 -8.1886 -6.5152 -35.6384 26.2769 -1.5438 -0.0001 -0.0000 -132.8149 -53.3595 -13.9492 6.4007 0.0000 0.0000 0.0000 0.0000 0.0000 0.0000 -2.1072 3.5956 -16.6026 18.2106 0.0000 0.0000 -13.2972 -3.0308 5.5244 -1.9552 0.0000 -0.0000 -0.8451 -6.5847 20.6727 22.1601 0.0000 0.0000 -0.4093 7.8702 9.9422 -25.8816 0.0000 -0.0000
 15.8742 -39.6551 33.0180 -6.0636 0.2005 -98.7624 0.4937 6.1305 0.7501 0.6141 1.2560 0.5675 -1.7947 7.7423 5.2155 -0.5008 1.9459 -0.8141 -1.7817 -0.6293 2.4734 -5.1449 -1.5918 5.1035 -20.8540 24.5653 32.7479 -19.9590 -8.9303 15.5636 -0.0001 0.0001 102.7760 -32.7839 -13.4701 2.0541 0.0000 -0.0000 0.0000 -0.0000 -0.0000 -0.0000 0.1976 -8.3220 -6.4749 -35.5497 26.2363 -1.6170 -0.0001 -0.0000 -132.8156 -53.4546 -13.9721 6.3488 0.0000 -0.0000 0.0000 -0.0000 0.0000 0.0000 -1.9869 3.7466 -16.5997 18.2886 0.0000 0.0000 -13.2128 -3.1882 5.7128 -2.0388 0.0000 -0.0000 -0.7193 -6.7184 20.8255 22.0072 0.0000 0.0000 -0.4388 8.0301 10.4023 -26.0606 0.0000 -0.0000
 15.8315 -39.7054 33.0282 -6.0683 0.3335 -99.0151 0.4698 6.1063 0.7802 0.5956 1.1974 0.5692 -1.8002 7.6593 5.3876 -0.4855 1.8957 -0.7470 -1.7360 -0.6937 2.5185 -5.0572 -1.3670 5.0540 -20.7962 24.5885 32.6200 -19.9233 -8.6883 15.7154 -0.0001 0.0001 102.7465 -32.7421 -13.4583 2.0397 0.0000 -0.0000 -0.0000 0.0000 0.0000 0.0000 0.2365 -8.4180 -6.4429 -35.4437 26.1935 -1.6846 -0.0001 -0.0000 -132.8222 -53.5150 -13.9971 6.3190 -0.0000 -0.0000 0.0000 0.0000 0.0000 0.0000 -1.8623 3.9131 -16.5689 18.3599 0.0000 0.0000 -13.1256 -3.3380 5.8511 -2.1236 0.0000 -0.0000 -0.5791 -6.8414 21.0345 21.8004 0.0000 0.0000 -0.4605 8.1777 10.8483 -26.1621 0.0000 -0.0000
 15.7876 -39.7599 33.0394 -6.0776 0.4634 -99.2443 0.4480 6.0640 0.8103 0.5787 1.1332 0.5707 -1.8082 7.5795 5.5506 -0.4723 1.8525 -0.6830 -1.6902 -0.7326 2.5633 -4.9578 -1.1314 5.0223 -20.7361 24.6237 32.4940 -19.8731 -8.4493 15.8763 -0.0001 0.0001 102.7114 -32.7173 -13.4515 2.0292 0.0000 0.0000 0.0000 0.0000 0.0000 0.0000 0.2659 -8.4818 -6.4205 -35.3260 26.1556 -1.7441 -0.0001 -0.0000 -132.8330 -53.5414 -14.0258 6.3023 -0.0000 0.0000 -0.0000 0.0000 0.0000 0.0000 -1.7364 4.0839 -16.5179 18.4202 0.0000 0.0000 -13.0350 -3.4784 5.9405 -2.2084 0.0000 -0.0000 -0.4388 -6.9639 21.2749 21.5596 0.0000 0.0000 -0.4863 8.3094 11.2653 -26.2077 0.0000 -0.0000
 15.7430 -39.8189 33.0511 -6.0900 0.5836 -99.4423 0.4246 6.0035 0.8391 0.5627 1.0649 0.5711 -1.8163 7.4987 5.6965 -0.4616 1.8143 -0.6202 -1.6487 -0.7406 2.6008 -4.8454 -0.8848 5.0131 -20.6704 24.6735 32.3711 -19.8148 -8.2076 16.0427 -0.0001 0.0001 102.6739 -32.7114 -13.4499 2.0164 -0.0000 -0.0000 0.0000 -0.0000 -0.0000 -0.0000 0.2846 -8.5096 -6.4101 -35.1984 26.1214 -1.7923 -0.0001 -0.0000 -132.8468 -53.5391 -14.0508 6.2960 -0.0000 -0.0000 -0.0000 0.0000 -0.0000 -0.0000 -1.6166 4.2576 -16.4565 18.4731 0.0000 0.0000 -12.9446 -3.6089 5.9840 -2.2903 0.0000 -0.0000 -0.3114 -7.0867 21.5191 21.2969 0.0000 0.0000 -0.5202 8.4214 11.6463 -26.2281 0.0000 -0.0000
 15.6981 -39.8821 33.0628 -6.0992 0.6924 -99.6017 0.4016 5.9218 0.8650 0.5474 0.9933 0.5704 -1.8235 7.4116 5.8191 -0.4553 1.7807 -0.5576 -1.6112 -0.7139 2.6272 -4.7232 -0.6318 5.0280 -20.5960 24.7424 32.2515 -19.7533 -7.9623 16.2095 -0.0001 0.0001 102.6356 -32.7220 -13.4521 2.0041 -0.0000 -0.0000 0.0000 -0.0000 0.0000 -0.0000 0.2987 -8.5043 -6.4140 -35.0689 26.0941 -1.8249 -0.0001 -0.0000 -132.8636 -53.5139 -14.0690 6.2998 0.0000 0.0000 -0.0000 0.0000 0.0000 0.0000 -1.5012 4.4267 -16.3953 18.5161 0.0000 0.0000 -12.8536 -3.7284 5.9850 -2.3708 0.0000 -0.0000 -0.2044 -7.2164 21.7416 21.0241 0.0000 0.0000 -0.5613 8.5118 11.9876 -26.2551 0.0000 -0.0000
